<?xml version="1.0" encoding="UTF-8" standalone="no"?>
<!DOCTYPE svg PUBLIC "-//W3C//DTD SVG 1.1//EN" "http://www.w3.org/Graphics/SVG/1.1/DTD/svg11.dtd">
<svg width="100%" height="100%" viewBox="0 0 512 512" version="1.1" xmlns="http://www.w3.org/2000/svg" xmlns:xlink="http://www.w3.org/1999/xlink" xml:space="preserve" xmlns:serif="http://www.serif.com/" style="fill-rule:evenodd;clip-rule:evenodd;stroke-linejoin:round;stroke-miterlimit:2;">
    <path d="M206.565,335.099L194.981,321.049C185.23,308.884 175.299,297.32 164.948,286.121C154.612,274.936 143.931,264.109 132.617,253.462C127.956,248.801 120.388,248.801 115.727,253.462C111.066,258.123 111.066,265.691 115.727,270.352C125.96,281.227 135.598,292.22 144.841,303.57C154.054,314.882 162.802,326.55 171.362,338.764C175.309,344.387 180.709,354.347 187.016,361.338C191.631,366.454 196.945,370.038 202.17,371.912C210.379,374.859 218.072,372.637 224.791,366.89C230.826,361.727 235.701,351.291 237.844,347.243L275.447,261.326C286.274,238.688 299.6,217.469 313.865,196.864C326.871,178.078 341.213,160.274 355.302,142.238C364.927,129.918 373.756,117.357 383.484,105.219C386.968,101.735 386.968,96.078 383.484,92.594C380,89.111 374.343,89.111 370.86,92.594C360.368,100.8 349.903,108.687 340.047,117.738C325.341,131.244 311.967,146.143 299.319,161.585C277.95,187.674 259.848,216.246 244.896,246.487L208.499,332.571C208.219,333.165 207.449,334.058 206.565,335.099Z" style="fill:rgb(0,224,85);"/>
</svg>
