<?xml version="1.0" encoding="UTF-8" standalone="no"?>
<!DOCTYPE svg PUBLIC "-//W3C//DTD SVG 1.1//EN" "http://www.w3.org/Graphics/SVG/1.1/DTD/svg11.dtd">
<svg width="100%" height="100%" viewBox="0 0 512 512" version="1.1" xmlns="http://www.w3.org/2000/svg" xmlns:xlink="http://www.w3.org/1999/xlink" xml:space="preserve" xmlns:serif="http://www.serif.com/" style="fill-rule:evenodd;clip-rule:evenodd;stroke-linejoin:round;stroke-miterlimit:2;">
    <g transform="matrix(1,0,0,1,5.61292,28.0646)">
        <path d="M119.182,178.995C146.008,188.776 171.522,202.692 196.051,218.578C210.697,228.064 224.898,238.356 238.82,248.935C260.194,265.177 280.836,282.17 300.232,299.27C305.682,303.957 320.308,318.98 334.544,330.959C339.772,335.358 344.692,339.263 349.412,341.977C355.096,345.244 359.038,344.665 361.5,346.585C362.419,348.778 364.946,349.813 367.139,348.894C369.332,347.975 370.366,345.449 369.448,343.256C369.286,342.705 368.891,342.175 368.77,341.494C367.998,337.144 369.099,332.827 366.257,325.383C365.117,322.397 362.787,319.832 360.655,316.848C358.481,313.806 356.114,310.737 353.471,307.747C341.166,293.83 325.967,280.83 320.703,276.068C292.882,251.711 263.106,226.848 230.923,205.863C198.218,184.538 163.205,167.177 126.81,156.11C120.495,154.005 113.658,157.423 111.553,163.738C109.448,170.053 112.866,176.89 119.182,178.995Z" style="fill:rgb(193,0,0);"/>
    </g>
    <g transform="matrix(1,0,0,1,5.61292,28.0646)">
        <path d="M148.596,380.487C151.573,375.984 154.846,371.719 158.223,367.508C166.609,357.05 175.728,347.162 183.912,336.484C215.003,292.833 246.074,249.99 278.619,208.131C300.175,180.407 322.327,153.073 345.865,126.452C351.233,120.276 367.449,101.22 383.505,84.004C390.562,76.437 397.472,69.274 403.607,63.864C405.362,62.315 406.835,60.864 408.223,59.441C411.051,56.539 410.839,53.337 413.379,52.247C416.034,52.449 418.354,50.457 418.556,47.802C418.758,45.147 416.766,42.827 414.111,42.625C410.32,40.112 406.611,39.845 400.168,40.453C396.873,40.764 393.671,42.611 390.086,44.449C386.034,46.526 382.057,49.597 377.804,52.793C371.827,57.285 365.591,62.407 359.755,68.033C343.517,83.687 329.623,101.765 324.464,107.62C300.639,134.822 278.057,162.615 256.419,191.057C224.073,233.577 193.716,277.435 163.112,321.924C155.989,333.098 147.863,343.563 140.529,354.542C137.172,359.569 133.954,364.658 131.074,369.974C128.172,374.809 129.743,381.09 134.578,383.991C139.413,386.893 145.694,385.322 148.596,380.487Z" style="fill:rgb(193,0,0);"/>
    </g>
</svg>
